<svg xmlns="http://www.w3.org/2000/svg" viewBox="0 0 1000 600">
  <!-- Fond -->
  <rect width="1000" height="600" fill="#f5f5f5" />
  
  <!-- Barre de navigation -->
  <rect x="0" y="0" width="1000" height="40" fill="#f1f3f4" stroke="#d0d0d0" stroke-width="1" />
  <text x="20" y="25" font-family="Arial" font-size="14" font-weight="bold">Colab Notebook</text>
  
  <!-- Menu principal -->
  <rect x="0" y="40" width="1000" height="30" fill="#ffffff" stroke="#d0d0d0" stroke-width="1" />
  <text x="30" y="60" font-family="Arial" font-size="12">Fichier</text>
  <text x="80" y="60" font-family="Arial" font-size="12">Édition</text>
  <text x="130" y="60" font-family="Arial" font-size="12">Affichage</text>
  <text x="190" y="60" font-family="Arial" font-size="12">Insertion</text>
  <text x="250" y="60" font-family="Arial" font-size="12">Exécution</text>
  <text x="310" y="60" font-family="Arial" font-size="12">Outils</text>
  <text x="355" y="60" font-family="Arial" font-size="12">Aide</text>
  
  <!-- Barre d'outils -->
  <rect x="0" y="70" width="1000" height="35" fill="#ffffff" stroke="#d0d0d0" stroke-width="1" />
  
  <!-- Boutons de la barre d'outils -->
  <circle cx="25" cy="87" r="10" fill="#f1f3f4" stroke="#d0d0d0" stroke-width="1" />
  <text x="25" y="91" font-family="Arial" font-size="14" text-anchor="middle">+</text>
  
  <rect x="45" y="77" width="70" height="20" rx="3" fill="#f1f3f4" stroke="#d0d0d0" stroke-width="1" />
  <text x="80" y="91" font-family="Arial" font-size="12" text-anchor="middle">Code</text>
  
  <rect x="125" y="77" width="25" height="20" rx="3" fill="#f1f3f4" stroke="#d0d0d0" stroke-width="1" />
  <text x="138" y="91" font-family="Arial" font-size="14" text-anchor="middle">▶</text>
  
  <rect x="155" y="77" width="25" height="20" rx="3" fill="#f1f3f4" stroke="#d0d0d0" stroke-width="1" />
  <text x="168" y="91" font-family="Arial" font-size="14" text-anchor="middle">□</text>
  
  <!-- Panneau latéral (réduit) -->
  <rect x="0" y="105" width="30" height="495" fill="#f8f9fa" stroke="#d0d0d0" stroke-width="1" />
  <rect x="5" y="115" width="20" height="20" fill="#f1f3f4" stroke="#d0d0d0" stroke-width="1" />
  <text x="15" y="130" font-family="Arial" font-size="14" text-anchor="middle">📁</text>
  
  <rect x="5" y="145" width="20" height="20" fill="#f1f3f4" stroke="#d0d0d0" stroke-width="1" />
  <text x="15" y="160" font-family="Arial" font-size="14" text-anchor="middle">+</text>
  
  <rect x="5" y="175" width="20" height="20" fill="#f1f3f4" stroke="#d0d0d0" stroke-width="1" />
  <text x="15" y="190" font-family="Arial" font-size="14" text-anchor="middle">⚙️</text>
  
  <!-- Titre du Notebook -->
  <text x="45" y="125" font-family="Arial" font-size="16" font-weight="bold">Demo_Deep_Learning.ipynb</text>
  
  <!-- Cellule 1 (Markdown) -->
  <rect x="45" y="140" width="925" height="110" fill="#ffffff" stroke="#d0d0d0" stroke-width="1" rx="4" />
  <!-- Barre de cellule Markdown -->
  <rect x="45" y="140" width="925" height="25" fill="#f1f3f4" stroke="#d0d0d0" stroke-width="1" rx="4" />
  <text x="60" y="158" font-family="Arial" font-size="12" fill="#666">Texte</text>
  
  <!-- Contenu Markdown -->
  <text x="60" y="180" font-family="Arial" font-size="18" font-weight="bold">Introduction au Deep Learning</text>
  <text x="60" y="205" font-family="Arial" font-size="14">Dans ce notebook, nous allons explorer les fondamentaux des réseaux de neurones et du Deep Learning.</text>
  <text x="60" y="225" font-family="Arial" font-size="14">Nous allons implémenter un simple réseau de neurones avec TensorFlow et l'entraîner sur MNIST.</text>
  
  <!-- Cellule 2 (Code) -->
  <rect x="45" y="260" width="925" height="110" fill="#ffffff" stroke="#d0d0d0" stroke-width="1" rx="4" />
  <!-- Barre de cellule Code -->
  <rect x="45" y="260" width="925" height="25" fill="#f1f3f4" stroke="#d0d0d0" stroke-width="1" rx="4" />
  <text x="60" y="278" font-family="Arial" font-size="12" fill="#666">Code</text>
  <rect x="900" y="265" width="60" height="15" rx="7" fill="#4285f4" />
  <text x="930" y="277" font-family="Arial" font-size="10" fill="white" text-anchor="middle">EXÉCUTER</text>
  
  <!-- Contenu Code -->
  <rect x="45" y="285" width="925" height="85" fill="#f9f9f9" />
  <text x="60" y="305" font-family="Consolas, monospace" font-size="12" fill="#0077aa">import</text>
  <text x="100" y="305" font-family="Consolas, monospace" font-size="12" fill="#333333">tensorflow</text>
  <text x="161" y="305" font-family="Consolas, monospace" font-size="12" fill="#0077aa">as</text>
  <text x="175" y="305" font-family="Consolas, monospace" font-size="12" fill="#333333">tf</text>
  <text x="60" y="325" font-family="Consolas, monospace" font-size="12" fill="#0077aa">import</text>
  <text x="100" y="325" font-family="Consolas, monospace" font-size="12" fill="#333333">numpy</text>
  <text x="136" y="325" font-family="Consolas, monospace" font-size="12" fill="#0077aa">as</text>
  <text x="150" y="325" font-family="Consolas, monospace" font-size="12" fill="#333333">np</text>
  <text x="60" y="345" font-family="Consolas, monospace" font-size="12" fill="#0077aa">import</text>
  <text x="100" y="345" font-family="Consolas, monospace" font-size="12" fill="#333333">matplotlib.pyplot</text>
  <text x="206" y="345" font-family="Consolas, monospace" font-size="12" fill="#0077aa">as</text>
  <text x="220" y="345" font-family="Consolas, monospace" font-size="12" fill="#333333">plt</text>
  <text x="60" y="365" font-family="Consolas, monospace" font-size="12" fill="#006600"># Vérification de la disponibilité du GPU</text>
  <text x="60" y="385" font-family="Consolas, monospace" font-size="12" fill="#333333">print(tf.config.list_physical_devices('GPU'))</text>
  
  <!-- Cellule 3 (Résultat d'exécution) -->
  <rect x="45" y="380" width="925" height="40" fill="#ffffff" stroke="#f0f0f0" stroke-width="1" rx="4" />
  <text x="60" y="405" font-family="Consolas, monospace" font-size="12" fill="#333333">[PhysicalDevice(name='/physical_device:GPU:0', device_type='GPU')]</text>
  
  <!-- Cellule 4 (Code) -->
  <rect x="45" y="430" width="925" height="150" fill="#ffffff" stroke="#d0d0d0" stroke-width="1" rx="4" />
  <!-- Barre de cellule Code -->
  <rect x="45" y="430" width="925" height="25" fill="#f1f3f4" stroke="#d0d0d0" stroke-width="1" rx="4" />
  <text x="60" y="448" font-family="Arial" font-size="12" fill="#666">Code</text>
  <rect x="900" y="435" width="60" height="15" rx="7" fill="#4285f4" />
  <text x="930" y="447" font-family="Arial" font-size="10" fill="white" text-anchor="middle">EXÉCUTER</text>
  
  <!-- Contenu Code -->
  <rect x="45" y="455" width="925" height="125" fill="#f9f9f9" />
  <text x="60" y="475" font-family="Consolas, monospace" font-size="12" fill="#006600"># Chargement des données MNIST</text>
  <text x="60" y="495" font-family="Consolas, monospace" font-size="12" fill="#333333">mnist = tf.keras.datasets.mnist</text>
  <text x="60" y="515" font-family="Consolas, monospace" font-size="12" fill="#333333">(x_train, y_train), (x_test, y_test) = mnist.load_data()</text>
  <text x="60" y="535" font-family="Consolas, monospace" font-size="12" fill="#333333">x_train, x_test = x_train / 255.0, x_test / 255.0</text>
  <text x="60" y="555" font-family="Consolas, monospace" font-size="12" fill="#006600"># Affichage d'un exemple</text>
  <text x="60" y="575" font-family="Consolas, monospace" font-size="12" fill="#333333">plt.figure()</text>
  <text x="60" y="595" font-family="Consolas, monospace" font-size="12" fill="#333333">plt.imshow(x_train[0], cmap='gray')</text>
  <text x="60" y="615" font-family="Consolas, monospace" font-size="12" fill="#333333">plt.show()</text>
  
  <!-- Annotations -->
  <rect x="750" y="15" width="220" height="35" rx="5" fill="#f8d7da" opacity="0.8" />
  <text x="860" y="35" font-family="Arial" font-size="12" font-weight="bold" text-anchor="middle" fill="#721c24">1. Barre de menu principale</text>
  <line x1="750" y1="30" x2="700" y2="55" stroke="#721c24" stroke-width="1" />
  
  <rect x="750" y="60" width="220" height="35" rx="5" fill="#d4edda" opacity="0.8" />
  <text x="860" y="80" font-family="Arial" font-size="12" font-weight="bold" text-anchor="middle" fill="#155724">2. Barre d'outils</text>
  <line x1="750" y1="80" x2="700" y2="87" stroke="#155724" stroke-width="1" />
  
  <rect x="10" y="270" width="180" height="35" rx="5" fill="#d1ecf1" opacity="0.8" transform="rotate(-90 10 270)" />
  <text x="20" y="250" font-family="Arial" font-size="12" font-weight="bold" text-anchor="middle" fill="#0c5460" transform="rotate(-90 20 250)">3. Panneau latéral</text>
  <line x1="20" y1="180" x2="30" y2="150" stroke="#0c5460" stroke-width="1" />
  
  <rect x="750" y="200" width="220" height="35" rx="5" fill="#fff3cd" opacity="0.8" />
  <text x="860" y="220" font-family="Arial" font-size="12" font-weight="bold" text-anchor="middle" fill="#856404">4. Cellules (Code/Markdown)</text>
  <line x1="750" y1="220" x2="700" y2="200" stroke="#856404" stroke-width="1" />
  
  <rect x="750" y="350" width="220" height="35" rx="5" fill="#e2e3e5" opacity="0.8" />
  <text x="860" y="370" font-family="Arial" font-size="12" font-weight="bold" text-anchor="middle" fill="#383d41">5. Résultat d'exécution</text>
  <line x1="750" y1="370" x2="700" y2="400" stroke="#383d41" stroke-width="1" />
</svg>