<svg xmlns="http://www.w3.org/2000/svg" viewBox="0 0 800 400">
  <!-- Fond blanc -->
  <rect width="800" height="400" fill="#ffffff" />
  
  <!-- Titre -->
  <text x="400" y="30" font-family="Arial" font-size="22" text-anchor="middle" font-weight="bold">Exemple simple de convolution</text>
  
  <!-- Image d'entrée (grille 6x6) -->
  <g transform="translate(60, 80)">
    <text x="120" y="-20" font-family="Arial" font-size="16" text-anchor="middle" font-weight="bold">Image d'entrée</text>
    
    <!-- Grille 6x6 -->
    <rect x="0" y="0" width="240" height="240" fill="#f0f0f0" stroke="#333333" stroke-width="2" />
    
    <!-- Lignes de grille verticales -->
    <line x1="40" y1="0" x2="40" y2="240" stroke="#333333" stroke-width="1" />
    <line x1="80" y1="0" x2="80" y2="240" stroke="#333333" stroke-width="1" />
    <line x1="120" y1="0" x2="120" y2="240" stroke="#333333" stroke-width="1" />
    <line x1="160" y1="0" x2="160" y2="240" stroke="#333333" stroke-width="1" />
    <line x1="200" y1="0" x2="200" y2="240" stroke="#333333" stroke-width="1" />
    
    <!-- Lignes de grille horizontales -->
    <line x1="0" y1="40" x2="240" y2="40" stroke="#333333" stroke-width="1" />
    <line x1="0" y1="80" x2="240" y2="80" stroke="#333333" stroke-width="1" />
    <line x1="0" y1="120" x2="240" y2="120" stroke="#333333" stroke-width="1" />
    <line x1="0" y1="160" x2="240" y2="160" stroke="#333333" stroke-width="1" />
    <line x1="0" y1="200" x2="240" y2="200" stroke="#333333" stroke-width="1" />
    
    <!-- Valeurs dans la grille -->
    <text x="20" y="25" font-family="Arial" font-size="16" text-anchor="middle">1</text>
    <text x="60" y="25" font-family="Arial" font-size="16" text-anchor="middle">0</text>
    <text x="100" y="25" font-family="Arial" font-size="16" text-anchor="middle">1</text>
    <text x="140" y="25" font-family="Arial" font-size="16" text-anchor="middle">2</text>
    <text x="180" y="25" font-family="Arial" font-size="16" text-anchor="middle">0</text>
    <text x="220" y="25" font-family="Arial" font-size="16" text-anchor="middle">0</text>
    
    <text x="20" y="65" font-family="Arial" font-size="16" text-anchor="middle">2</text>
    <text x="60" y="65" font-family="Arial" font-size="16" text-anchor="middle">3</text>
    <text x="100" y="65" font-family="Arial" font-size="16" text-anchor="middle">0</text>
    <text x="140" y="65" font-family="Arial" font-size="16" text-anchor="middle">1</text>
    <text x="180" y="65" font-family="Arial" font-size="16" text-anchor="middle">2</text>
    <text x="220" y="65" font-family="Arial" font-size="16" text-anchor="middle">1</text>
    
    <text x="20" y="105" font-family="Arial" font-size="16" text-anchor="middle">0</text>
    <text x="60" y="105" font-family="Arial" font-size="16" text-anchor="middle">2</text>
    <text x="100" y="105" font-family="Arial" font-size="16" text-anchor="middle">1</text>
    <text x="140" y="105" font-family="Arial" font-size="16" text-anchor="middle">0</text>
    <text x="180" y="105" font-family="Arial" font-size="16" text-anchor="middle">3</text>
    <text x="220" y="105" font-family="Arial" font-size="16" text-anchor="middle">0</text>
    
    <text x="20" y="145" font-family="Arial" font-size="16" text-anchor="middle">2</text>
    <text x="60" y="145" font-family="Arial" font-size="16" text-anchor="middle">0</text>
    <text x="100" y="145" font-family="Arial" font-size="16" text-anchor="middle">2</text>
    <text x="140" y="145" font-family="Arial" font-size="16" text-anchor="middle">0</text>
    <text x="180" y="145" font-family="Arial" font-size="16" text-anchor="middle">1</text>
    <text x="220" y="145" font-family="Arial" font-size="16" text-anchor="middle">2</text>
    
    <text x="20" y="185" font-family="Arial" font-size="16" text-anchor="middle">1</text>
    <text x="60" y="185" font-family="Arial" font-size="16" text-anchor="middle">2</text>
    <text x="100" y="185" font-family="Arial" font-size="16" text-anchor="middle">0</text>
    <text x="140" y="185" font-family="Arial" font-size="16" text-anchor="middle">3</text>
    <text x="180" y="185" font-family="Arial" font-size="16" text-anchor="middle">0</text>
    <text x="220" y="185" font-family="Arial" font-size="16" text-anchor="middle">1</text>
    
    <text x="20" y="225" font-family="Arial" font-size="16" text-anchor="middle">0</text>
    <text x="60" y="225" font-family="Arial" font-size="16" text-anchor="middle">1</text>
    <text x="100" y="225" font-family="Arial" font-size="16" text-anchor="middle">0</text>
    <text x="140" y="225" font-family="Arial" font-size="16" text-anchor="middle">2</text>
    <text x="180" y="225" font-family="Arial" font-size="16" text-anchor="middle">1</text>
    <text x="220" y="225" font-family="Arial" font-size="16" text-anchor="middle">0</text>
    
    <!-- Rectangle rouge semi-transparent pour la zone de convolution -->
    <rect x="40" y="40" width="120" height="120" fill="rgba(255,0,0,0.2)" stroke="red" stroke-width="2" />
  </g>
  
  <!-- Filtre de convolution (grille 3x3) -->
  <g transform="translate(380, 140)">
    <text x="60" y="-20" font-family="Arial" font-size="16" text-anchor="middle" font-weight="bold">Filtre de convolution</text>
    
    <!-- Grille 3x3 -->
    <rect x="0" y="0" width="120" height="120" fill="#e6fff9" stroke="#333333" stroke-width="2" />
    
    <!-- Lignes de grille verticales -->
    <line x1="40" y1="0" x2="40" y2="120" stroke="#333333" stroke-width="1" />
    <line x1="80" y1="0" x2="80" y2="120" stroke="#333333" stroke-width="1" />
    
    <!-- Lignes de grille horizontales -->
    <line x1="0" y1="40" x2="120" y2="40" stroke="#333333" stroke-width="1" />
    <line x1="0" y1="80" x2="120" y2="80" stroke="#333333" stroke-width="1" />
    
    <!-- Valeurs du filtre -->
    <text x="20" y="25" font-family="Arial" font-size="16" text-anchor="middle" font-weight="bold">1</text>
    <text x="60" y="25" font-family="Arial" font-size="16" text-anchor="middle" font-weight="bold">0</text>
    <text x="100" y="25" font-family="Arial" font-size="16" text-anchor="middle" font-weight="bold">-1</text>
    
    <text x="20" y="65" font-family="Arial" font-size="16" text-anchor="middle" font-weight="bold">2</text>
    <text x="60" y="65" font-family="Arial" font-size="16" text-anchor="middle" font-weight="bold">0</text>
    <text x="100" y="65" font-family="Arial" font-size="16" text-anchor="middle" font-weight="bold">-2</text>
    
    <text x="20" y="105" font-family="Arial" font-size="16" text-anchor="middle" font-weight="bold">1</text>
    <text x="60" y="105" font-family="Arial" font-size="16" text-anchor="middle" font-weight="bold">0</text>
    <text x="100" y="105" font-family="Arial" font-size="16" text-anchor="middle" font-weight="bold">-1</text>
  </g>
  
  <!-- Flèche -->
  <g transform="translate(510, 200)">
    <path d="M 0,0 L 40,0 L 30,-10 M 40,0 L 30,10" fill="none" stroke="#333333" stroke-width="2" />
  </g>
  
  <!-- Résultat (valeur calculée) -->
  <g transform="translate(570, 140)">
    <text x="60" y="-20" font-family="Arial" font-size="16" text-anchor="middle" font-weight="bold">Résultat</text>
    
    <!-- Cadre -->
    <rect x="0" y="0" width="120" height="120" fill="#f9f9f9" stroke="#333333" stroke-width="2" />
    
    <!-- Valeur -->
    <text x="60" y="65" font-family="Arial" font-size="24" text-anchor="middle" font-weight="bold">7</text>
  </g>
  
  <!-- Explication du calcul -->
  <g transform="translate(400, 300)">
    <text x="0" y="0" font-family="Arial" font-size="16" font-weight="bold">Exemple de calcul :</text>
    <text x="0" y="25" font-family="Arial" font-size="14">(1 × 3) + (0 × 0) + (-1 × 1) = 2</text>
    <text x="0" y="50" font-family="Arial" font-size="14">(2 × 2) + (0 × 1) + (-2 × 0) = 4</text>
    <text x="0" y="75" font-family="Arial" font-size="14">(1 × 0) + (0 × 2) + (-1 × 1) = -1</text>
    <text x="0" y="100" font-family="Arial" font-size="14">Résultat = 2 + 4 + (-1) = 5</text>
  </g>
</svg>