<svg xmlns="http://www.w3.org/2000/svg" viewBox="0 0 800 400">
  <!-- Background with grid -->
  <rect width="800" height="400" fill="#f8f9fa" />
  <g stroke="#ddd" stroke-width="1">
    <line x1="0" y1="50" x2="800" y2="50" />
    <line x1="0" y1="100" x2="800" y2="100" />
    <line x1="0" y1="150" x2="800" y2="150" />
    <line x1="0" y1="200" x2="800" y2="200" />
    <line x1="0" y1="250" x2="800" y2="250" />
    <line x1="0" y1="300" x2="800" y2="300" />
    <line x1="0" y1="350" x2="800" y2="350" />
    
    <line x1="100" y1="0" x2="100" y2="400" />
    <line x1="200" y1="0" x2="200" y2="400" />
    <line x1="300" y1="0" x2="300" y2="400" />
    <line x1="400" y1="0" x2="400" y2="400" />
    <line x1="500" y1="0" x2="500" y2="400" />
    <line x1="600" y1="0" x2="600" y2="400" />
    <line x1="700" y1="0" x2="700" y2="400" />
  </g>
  
  <!-- Title -->
  <text x="400" y="30" font-family="Arial" font-size="24" text-anchor="middle" fill="#333">Architecture d'une cellule GRU</text>
  
  <!-- GRU Cell Container -->
  <rect x="150" y="70" width="500" height="260" rx="10" fill="#e8f5e9" stroke="#66bb6a" stroke-width="2" />
  
  <!-- Hidden State Line -->
  <line x1="150" y1="180" x2="650" y2="180" stroke="#5e35b1" stroke-width="4" />
  <circle cx="200" cy="180" r="10" fill="#5e35b1" />
  <circle cx="600" cy="180" r="10" fill="#5e35b1" />
  <text x="180" y="160" font-family="Arial" font-size="16" fill="#5e35b1">h(t-1)</text>
  <text x="620" y="160" font-family="Arial" font-size="16" fill="#5e35b1">h(t)</text>
  
  <!-- Input -->
  <circle cx="325" cy="350" r="10" fill="#43a047" />
  <line x1="325" y1="350" x2="325" y2="250" stroke="#43a047" stroke-width="2" />
  <text x="325" y="380" font-family="Arial" font-size="16" fill="#43a047" text-anchor="middle">x(t)</text>
  
  <!-- Reset Gate -->
  <rect x="250" y="220" width="60" height="60" rx="5" fill="#ffca28" stroke="#ff8f00" stroke-width="2" />
  <text x="280" y="255" font-family="Arial" font-size="20" text-anchor="middle" fill="#ff8f00">σ</text>
  <text x="280" y="300" font-family="Arial" font-size="14" text-anchor="middle" fill="#ff8f00">Reset Gate</text>
  
  <!-- Update Gate -->
  <rect x="350" y="220" width="60" height="60" rx="5" fill="#42a5f5" stroke="#1976d2" stroke-width="2" />
  <text x="380" y="255" font-family="Arial" font-size="20" text-anchor="middle" fill="#1976d2">σ</text>
  <text x="380" y="300" font-family="Arial" font-size="14" text-anchor="middle" fill="#1976d2">Update Gate</text>
  
  <!-- Candidate Hidden State -->
  <rect x="450" y="220" width="60" height="60" rx="5" fill="#ec407a" stroke="#c2185b" stroke-width="2" />
  <text x="480" y="255" font-family="Arial" font-size="20" text-anchor="middle" fill="#c2185b">tanh</text>
  <text x="480" y="300" font-family="Arial" font-size="14" text-anchor="middle" fill="#c2185b">Candidate</text>
  
  <!-- Multiplication Points -->
  <circle cx="280" cy="180" r="8" fill="#fdd835" stroke="#f57f17" stroke-width="2" />
  <text x="280" y="180" font-family="Arial" font-size="14" text-anchor="middle" fill="#f57f17">×</text>
  
  <circle cx="380" cy="180" r="8" fill="#29b6f6" stroke="#0277bd" stroke-width="2" />
  <text x="380" y="180" font-family="Arial" font-size="14" text-anchor="middle" fill="#0277bd">×</text>
  
  <circle cx="480" cy="180" r="8" fill="#ec407a" stroke="#c2185b" stroke-width="2" />
  <text x="480" y="180" font-family="Arial" font-size="14" text-anchor="middle" fill="#c2185b">×</text>
  
  <!-- One Minus -->
  <circle cx="430" cy="140" r="8" fill="#78909c" stroke="#37474f" stroke-width="2" />
  <text x="430" y="143" font-family="Arial" font-size="10" text-anchor="middle" fill="#37474f">1-</text>
  
  <!-- Addition Point -->
  <circle cx="530" cy="180" r="8" fill="#78909c" stroke="#37474f" stroke-width="2" />
  <text x="530" y="180" font-family="Arial" font-size="14" text-anchor="middle" fill="#37474f">+</text>
  
  <!-- Connecting Lines -->
  <path d="M 200,180 C 230,180 250,140 280,140 L 280,172" fill="none" stroke="#5e35b1" stroke-width="2" />
  <path d="M 280,140 C 310,140 350,140 380,140 L 422,140" fill="none" stroke="#5e35b1" stroke-width="2" />
  <path d="M 325,250 C 325,230 250,200 250,220" fill="none" stroke="#43a047" stroke-width="2" />
  <path d="M 325,250 C 325,230 350,200 350,220" fill="none" stroke="#43a047" stroke-width="2" />
  <path d="M 280,220 L 280,188" fill="none" stroke="#ff8f00" stroke-width="2" />
  <path d="M 310,230 C 330,230 380,230 380,220" fill="none" stroke="#ff8f00" stroke-width="2" />
  <path d="M 380,220 L 380,188" fill="none" stroke="#1976d2" stroke-width="2" />
  <path d="M 380,140 C 400,140 420,120 430,120 L 430,132" fill="none" stroke="#1976d2" stroke-width="2" />
  <path d="M 438,140 C 450,140 470,160 480,160 L 480,172" fill="none" stroke="#37474f" stroke-width="2" />
  <path d="M 480,220 L 480,188" fill="none" stroke="#c2185b" stroke-width="2" />
  <path d="M 488,180 C 500,180 520,180 522,180" fill="none" stroke="#c2185b" stroke-width="2" />
  <path d="M 538,180 C 550,180 580,180 600,180" fill="none" stroke="#37474f" stroke-width="2" />
  
  <!-- Legend -->
  <text x="720" y="390" font-family="Arial" font-size="12" text-anchor="end" fill="#666">σ: Sigmoid</text>
</svg>