<svg width="800" height="400" xmlns="http://www.w3.org/2000/svg">
  <!-- Titre -->
  <text x="400" y="40" font-family="Arial" font-size="24" text-anchor="middle" font-weight="bold">Distillation de connaissances</text>
  
  <!-- Modèle enseignant (grand modèle) -->
  <rect x="100" y="80" width="200" height="250" fill="#4285F4" rx="10" ry="10" />
  <text x="200" y="120" font-family="Arial" font-size="18" text-anchor="middle" fill="white">Modèle Enseignant</text>
  <text x="200" y="150" font-family="Arial" font-size="16" text-anchor="middle" fill="white">Complexe</text>
  
  <!-- Couches du grand modèle -->
  <rect x="130" y="170" width="140" height="20" fill="white" opacity="0.8" rx="5" ry="5" />
  <rect x="130" y="200" width="140" height="20" fill="white" opacity="0.8" rx="5" ry="5" />
  <rect x="130" y="230" width="140" height="20" fill="white" opacity="0.8" rx="5" ry="5" />
  <rect x="130" y="260" width="140" height="20" fill="white" opacity="0.8" rx="5" ry="5" />
  <rect x="130" y="290" width="140" height="20" fill="white" opacity="0.8" rx="5" ry="5" />
  
  <!-- Données d'entrée -->
  <rect x="150" y="350" width="100" height="30" fill="#DB4437" rx="5" ry="5" />
  <text x="200" y="370" font-family="Arial" font-size="14" text-anchor="middle" fill="white">Données d'entrée</text>
  
  <!-- Flèche des données vers le modèle enseignant -->
  <line x1="200" y1="350" x2="200" y2="330" stroke="#333" stroke-width="2" />
  <polygon points="190,340 200,330 210,340" fill="#333" />
  
  <!-- Sortie du modèle enseignant -->
  <rect x="250" y="30" width="140" height="30" fill="#F4B400" rx="5" ry="5" />
  <text x="320" y="50" font-family="Arial" font-size="14" text-anchor="middle">Prédictions "soft"</text>
  
  <!-- Flèche du modèle enseignant vers les prédictions -->
  <line x1="260" y1="80" x2="300" y2="60" stroke="#333" stroke-width="2" />
  <polygon points="290,55 305,55 300,65" fill="#333" />
  
  <!-- Modèle élève (petit modèle) -->
  <rect x="500" y="150" width="200" height="100" fill="#0F9D58" rx="10" ry="10" />
  <text x="600" y="180" font-family="Arial" font-size="18" text-anchor="middle" fill="white">Modèle Élève</text>
  <text x="600" y="210" font-family="Arial" font-size="16" text-anchor="middle" fill="white">Léger</text>
  
  <!-- Couches du petit modèle -->
  <rect x="530" y="230" width="140" height="20" fill="white" opacity="0.8" rx="5" ry="5" />
  <rect x="530" y="260" width="140" height="20" fill="white" opacity="0.8" rx="5" ry="5" />
  
  <!-- Flèche des données vers le modèle élève -->
  <line x1="300" y1="350" x2="500" y2="250" stroke="#333" stroke-width="2" stroke-dasharray="5,5" />
  <polygon points="490,245 505,245 500,255" fill="#333" />
  
  <!-- Flèche des prédictions du modèle enseignant vers le modèle élève (distillation) -->
  <line x1="390" y1="45" x2="500" y2="150" stroke="#333" stroke-width="3" />
  <polygon points="490,140 505,145 495,160" fill="#333" />
  <text x="440" y="80" font-family="Arial" font-size="16" text-anchor="middle">Distillation</text>
  
  <!-- Sortie du modèle élève -->
  <rect x="650" y="30" width="140" height="30" fill="#F4B400" rx="5" ry="5" />
  <text x="720" y="50" font-family="Arial" font-size="14" text-anchor="middle">Prédictions similaires</text>
  
  <!-- Flèche du modèle élève vers les prédictions -->
  <line x1="600" y1="150" x2="650" y2="60" stroke="#333" stroke-width="2" />
  <polygon points="640,55 655,55 650,65" fill="#333" />
  
  <!-- Information sur l'apprentissage -->
  <text x="450" y="320" font-family="Arial" font-size="14" text-anchor="middle" font-style="italic">L'élève apprend à imiter l'enseignant</text>
  
  <!-- Avantages -->
  <text x="400" y="380" font-family="Arial" font-size="18" text-anchor="middle" font-weight="bold">Avantages: Modèle plus petit avec des performances proches du grand modèle</text>
</svg>